<?xml version="1.0" encoding="utf-8"?>
<!-- Generator: Adobe Illustrator 16.0.0, SVG Export Plug-In . SVG Version: 6.00 Build 0)  -->
<!DOCTYPE svg PUBLIC "-//W3C//DTD SVG 1.1//EN" "http://www.w3.org/Graphics/SVG/1.1/DTD/svg11.dtd">
<svg version="1.1" id="Layer_1" xmlns="http://www.w3.org/2000/svg" xmlns:xlink="http://www.w3.org/1999/xlink" x="0px" y="0px"
	 width="52px" height="40px" viewBox="0 0 52 40" enable-background="new 0 0 52 40" xml:space="preserve">
<path fill="#221E1F" d="M51.893,34.673c0,2.859-2.328,5.188-5.188,5.188H5.188C2.329,39.86,0,37.532,0,34.673V5.188
	C0,2.329,2.329,0,5.188,0h41.516c2.86,0,5.188,2.329,5.188,5.188V34.673z"/>
<path fill-rule="evenodd" clip-rule="evenodd" fill="#FFFFFF" d="M12.756,29.173c-0.733,0-1.346-0.602-1.346-1.345V9.394
	c0-0.733-0.603-1.335-1.335-1.335h-2.7c-0.732,0-1.335-0.602-1.335-1.345V5.67c0-0.733,0.603-1.335,1.335-1.335h6.995
	c0.743,0,1.345,0.602,1.345,1.335v18.434c0,0.742,0.602,1.346,1.345,1.346h3.803c0.743,0,1.346,0.603,1.346,1.345v1.033
	c0,0.743-0.603,1.345-1.346,1.345H12.756z"/>
<path fill-rule="evenodd" clip-rule="evenodd" fill="#FFFFFF" d="M24.988,29.173c-0.743,0-1.345-0.602-1.345-1.345v-9.183
	c0-0.742-0.602-1.345-1.345-1.345h-2.248c-0.733,0-1.334-0.602-1.334-1.334v-1.043c0-0.733,0.602-1.344,1.334-1.344h6.552
	c0.733,0,1.334,0.611,1.334,1.344v9.182c0,0.742,0.613,1.346,1.345,1.346h2.269c0.732,0,1.345,0.603,1.345,1.345v1.033
	c0,0.743-0.612,1.345-1.345,1.345H24.988z"/>
<path fill-rule="evenodd" clip-rule="evenodd" fill="#FFFFFF" d="M35.767,29.173c-0.733,0-1.335-0.602-1.335-1.345V9.394
	c0-0.733-0.602-1.335-1.345-1.335h-2.69c-0.741,0-1.345-0.602-1.345-1.345V5.67c0-0.733,0.604-1.335,1.345-1.335h6.994
	c0.733,0,1.335,0.602,1.335,1.335v18.434c0,0.742,0.612,1.346,1.345,1.346h3.814c0.732,0,1.345,0.603,1.345,1.345v1.033
	c0,0.743-0.612,1.345-1.345,1.345H35.767z"/>
<path fill="#FFFFFF" d="M27.236,8.099c0,2.308-1.878,4.185-4.194,4.185c-2.319,0-4.186-1.876-4.186-4.185
	c0-2.318,1.867-4.195,4.186-4.195C25.358,3.904,27.236,5.781,27.236,8.099z"/>
<path fill-rule="evenodd" clip-rule="evenodd" fill="#FFFFFF" d="M12.013,31.54v3.544h1.998c0.16,0,0.28,0.039,0.37,0.12
	c0.081,0.07,0.121,0.17,0.121,0.292c0,0.119-0.04,0.209-0.121,0.29c-0.09,0.07-0.21,0.109-0.37,0.109h-2.379
	c-0.21,0-0.361-0.049-0.461-0.14c-0.091-0.1-0.141-0.25-0.141-0.462V31.54c0-0.189,0.05-0.341,0.141-0.44
	c0.09-0.101,0.2-0.151,0.351-0.151c0.14,0,0.261,0.051,0.36,0.151C11.972,31.199,12.013,31.341,12.013,31.54z"/>
<path fill-rule="evenodd" clip-rule="evenodd" fill="#FFFFFF" d="M17.311,34.161c-0.13,0.039-0.321,0.1-0.582,0.15l-0.521,0.12
	c-0.1,0.02-0.19,0.07-0.281,0.15c-0.09,0.071-0.13,0.171-0.13,0.31c0,0.132,0.05,0.251,0.161,0.354
	c0.1,0.09,0.231,0.139,0.402,0.139c0.18,0,0.341-0.039,0.501-0.119c0.15-0.081,0.261-0.181,0.332-0.302
	c0.08-0.14,0.119-0.361,0.119-0.683V34.161z M17.372,35.464c-0.222,0.171-0.431,0.303-0.633,0.383
	c-0.209,0.09-0.441,0.129-0.692,0.129c-0.231,0-0.431-0.049-0.611-0.139c-0.181-0.091-0.312-0.212-0.402-0.373
	c-0.1-0.16-0.151-0.331-0.151-0.511c0-0.241,0.081-0.451,0.241-0.632c0.161-0.17,0.371-0.292,0.643-0.353l0.431-0.09l0.583-0.12
	l0.531-0.15c-0.01-0.231-0.06-0.412-0.14-0.521c-0.091-0.109-0.261-0.171-0.532-0.171c-0.231,0-0.402,0.039-0.521,0.101
	c-0.111,0.061-0.212,0.16-0.302,0.292l-0.171,0.251c-0.039,0.039-0.109,0.059-0.22,0.059c-0.101,0-0.191-0.029-0.261-0.101
	c-0.081-0.061-0.111-0.15-0.111-0.25c0-0.151,0.051-0.312,0.161-0.461c0.121-0.151,0.291-0.272,0.532-0.372
	c0.24-0.101,0.532-0.142,0.893-0.142c0.401,0,0.712,0.041,0.933,0.142c0.231,0.09,0.392,0.24,0.482,0.44
	c0.1,0.202,0.141,0.473,0.141,0.813v0.531v0.502c0,0.17,0.029,0.343,0.08,0.533c0.059,0.18,0.09,0.3,0.09,0.351
	c0,0.09-0.051,0.181-0.131,0.261c-0.09,0.07-0.19,0.109-0.301,0.109c-0.09,0-0.18-0.039-0.271-0.129
	C17.571,35.756,17.472,35.635,17.372,35.464z"/>
<path fill-rule="evenodd" clip-rule="evenodd" fill="#FFFFFF" d="M19.76,32.795v0.111c0.16-0.212,0.341-0.362,0.522-0.462
	c0.19-0.101,0.411-0.151,0.651-0.151c0.24,0,0.452,0.051,0.642,0.161c0.191,0.102,0.331,0.251,0.421,0.442
	c0.061,0.11,0.1,0.229,0.121,0.351c0.011,0.13,0.021,0.291,0.021,0.492v1.686c0,0.181-0.041,0.321-0.121,0.412
	c-0.08,0.09-0.191,0.139-0.321,0.139c-0.14,0-0.251-0.049-0.331-0.139c-0.08-0.101-0.13-0.231-0.13-0.412V33.92
	c0-0.302-0.041-0.533-0.121-0.683c-0.08-0.16-0.251-0.24-0.491-0.24c-0.161,0-0.312,0.049-0.442,0.139
	c-0.14,0.102-0.23,0.231-0.291,0.402c-0.051,0.131-0.071,0.382-0.071,0.752v1.135c0,0.181-0.039,0.321-0.13,0.412
	c-0.081,0.09-0.191,0.139-0.332,0.139c-0.13,0-0.23-0.049-0.32-0.139c-0.081-0.101-0.122-0.231-0.122-0.412v-2.618
	c0-0.173,0.041-0.302,0.112-0.382c0.079-0.091,0.18-0.132,0.31-0.132c0.081,0,0.151,0.021,0.211,0.061
	c0.071,0.041,0.12,0.091,0.161,0.171C19.739,32.595,19.76,32.685,19.76,32.795z"/>
<path fill-rule="evenodd" clip-rule="evenodd" fill="#FFFFFF" d="M23.603,34.11c0,0.36,0.08,0.643,0.241,0.833
	c0.161,0.18,0.373,0.28,0.624,0.28c0.15,0,0.29-0.04,0.431-0.12c0.13-0.09,0.241-0.212,0.321-0.37
	c0.09-0.161,0.129-0.362,0.129-0.594c0-0.361-0.08-0.651-0.251-0.862c-0.161-0.2-0.37-0.3-0.642-0.3c-0.251,0-0.462,0.09-0.623,0.29
	C23.683,33.467,23.603,33.739,23.603,34.11z M26.233,32.955v2.631c0,0.3-0.042,0.561-0.101,0.782
	c-0.06,0.211-0.17,0.392-0.311,0.531c-0.141,0.141-0.322,0.251-0.553,0.321c-0.23,0.061-0.512,0.102-0.853,0.102
	c-0.312,0-0.592-0.051-0.843-0.131c-0.241-0.091-0.431-0.2-0.562-0.342c-0.129-0.141-0.2-0.28-0.2-0.421
	c0-0.122,0.039-0.202,0.12-0.271c0.07-0.07,0.161-0.111,0.271-0.111c0.13,0,0.241,0.061,0.342,0.18l0.15,0.183
	c0.05,0.059,0.111,0.109,0.171,0.148c0.069,0.052,0.14,0.081,0.23,0.103c0.09,0.02,0.191,0.029,0.312,0.029
	c0.231,0,0.412-0.029,0.542-0.101c0.13-0.061,0.221-0.15,0.271-0.27c0.049-0.122,0.081-0.241,0.09-0.373
	c0.01-0.141,0.02-0.351,0.02-0.652c-0.141,0.202-0.301,0.341-0.482,0.442c-0.181,0.11-0.401,0.159-0.652,0.159
	c-0.301,0-0.572-0.078-0.793-0.229c-0.231-0.16-0.402-0.372-0.521-0.652c-0.121-0.28-0.181-0.602-0.181-0.965
	c0-0.271,0.03-0.521,0.111-0.74c0.07-0.212,0.18-0.402,0.311-0.553c0.14-0.151,0.301-0.261,0.481-0.342
	c0.171-0.07,0.372-0.109,0.582-0.109c0.262,0,0.482,0.049,0.672,0.149c0.181,0.09,0.362,0.251,0.522,0.462v-0.121
	c0-0.161,0.041-0.28,0.121-0.37c0.071-0.081,0.17-0.132,0.291-0.132c0.182,0,0.291,0.061,0.352,0.171
	C26.202,32.585,26.233,32.746,26.233,32.955z"/>
<path fill-rule="evenodd" clip-rule="evenodd" fill="#FFFFFF" d="M29.213,35.464v-0.109c-0.11,0.132-0.221,0.251-0.342,0.341
	c-0.12,0.091-0.251,0.161-0.391,0.212c-0.141,0.039-0.302,0.059-0.481,0.059c-0.222,0-0.422-0.039-0.593-0.129
	c-0.17-0.091-0.312-0.222-0.401-0.383c-0.11-0.189-0.17-0.46-0.17-0.823v-1.795c0-0.181,0.04-0.312,0.121-0.401
	c0.08-0.091,0.191-0.142,0.331-0.142c0.131,0,0.24,0.051,0.33,0.142c0.081,0.09,0.122,0.221,0.122,0.401v1.444
	c0,0.212,0.02,0.393,0.05,0.533c0.04,0.14,0.1,0.261,0.191,0.329c0.1,0.093,0.219,0.132,0.38,0.132c0.15,0,0.292-0.051,0.432-0.142
	c0.131-0.09,0.23-0.209,0.292-0.351c0.05-0.129,0.08-0.411,0.08-0.843v-1.104c0-0.181,0.039-0.312,0.119-0.401
	c0.091-0.091,0.191-0.142,0.331-0.142c0.132,0,0.241,0.051,0.322,0.142c0.08,0.09,0.131,0.221,0.131,0.401v2.618
	c0,0.181-0.041,0.312-0.121,0.393c-0.081,0.09-0.181,0.129-0.301,0.129c-0.131,0-0.23-0.049-0.312-0.129
	C29.253,35.756,29.213,35.625,29.213,35.464z"/>
<path fill-rule="evenodd" clip-rule="evenodd" fill="#FFFFFF" d="M33.077,34.161c-0.132,0.039-0.321,0.1-0.572,0.15l-0.532,0.12
	c-0.091,0.02-0.191,0.07-0.281,0.15c-0.08,0.071-0.131,0.171-0.131,0.31c0,0.132,0.061,0.251,0.161,0.344
	c0.101,0.1,0.24,0.148,0.41,0.148c0.172,0,0.343-0.039,0.492-0.119c0.151-0.081,0.261-0.181,0.331-0.302
	c0.081-0.14,0.122-0.361,0.122-0.683V34.161z M33.136,35.464c-0.22,0.171-0.431,0.303-0.631,0.383
	c-0.201,0.09-0.432,0.129-0.693,0.129c-0.23,0-0.432-0.049-0.612-0.139c-0.17-0.091-0.311-0.212-0.4-0.373
	c-0.092-0.16-0.141-0.331-0.141-0.511c0-0.241,0.08-0.451,0.23-0.632c0.161-0.17,0.371-0.292,0.651-0.353l0.422-0.09l0.593-0.12
	l0.522-0.15c-0.011-0.231-0.051-0.412-0.142-0.521c-0.08-0.109-0.261-0.171-0.532-0.171c-0.229,0-0.4,0.039-0.511,0.101
	c-0.121,0.061-0.221,0.16-0.301,0.292c-0.081,0.119-0.142,0.209-0.181,0.251c-0.031,0.039-0.101,0.059-0.222,0.059
	c-0.1,0-0.19-0.029-0.261-0.101c-0.07-0.061-0.109-0.15-0.109-0.25c0-0.151,0.059-0.312,0.17-0.461
	c0.11-0.151,0.29-0.272,0.521-0.372c0.241-0.101,0.542-0.142,0.893-0.142c0.402,0,0.713,0.041,0.944,0.142
	c0.221,0.09,0.391,0.24,0.482,0.44c0.09,0.202,0.139,0.473,0.139,0.813v0.531l-0.01,0.502c0,0.17,0.03,0.343,0.09,0.533
	c0.052,0.18,0.081,0.3,0.081,0.351c0,0.09-0.04,0.181-0.13,0.261c-0.091,0.07-0.181,0.109-0.302,0.109
	c-0.09,0-0.181-0.039-0.271-0.129C33.338,35.756,33.236,35.635,33.136,35.464z"/>
<path fill-rule="evenodd" clip-rule="evenodd" fill="#FFFFFF" d="M35.485,34.11c0,0.36,0.08,0.643,0.239,0.833
	c0.161,0.18,0.373,0.28,0.624,0.28c0.149,0,0.29-0.04,0.431-0.12c0.131-0.09,0.241-0.212,0.321-0.37
	c0.091-0.161,0.13-0.362,0.13-0.594c0-0.361-0.081-0.651-0.251-0.862c-0.16-0.2-0.37-0.3-0.631-0.3s-0.473,0.09-0.634,0.29
	C35.565,33.467,35.485,33.739,35.485,34.11z M38.114,32.955v2.631c0,0.3-0.04,0.561-0.1,0.782c-0.062,0.211-0.171,0.392-0.312,0.531
	c-0.141,0.141-0.321,0.251-0.553,0.321c-0.229,0.061-0.511,0.102-0.853,0.102c-0.311,0-0.592-0.051-0.833-0.131
	c-0.25-0.091-0.44-0.2-0.572-0.342c-0.129-0.141-0.199-0.28-0.199-0.421c0-0.122,0.04-0.202,0.12-0.271
	c0.069-0.07,0.16-0.111,0.271-0.111c0.13,0,0.24,0.061,0.341,0.18l0.15,0.183c0.05,0.059,0.11,0.109,0.181,0.148
	c0.061,0.052,0.13,0.081,0.22,0.103c0.092,0.02,0.191,0.029,0.312,0.029c0.231,0,0.412-0.029,0.542-0.101
	c0.131-0.061,0.221-0.15,0.271-0.27c0.049-0.122,0.081-0.241,0.091-0.373l0.02-0.652c-0.141,0.202-0.301,0.341-0.482,0.442
	c-0.181,0.11-0.4,0.159-0.651,0.159c-0.301,0-0.562-0.078-0.793-0.229c-0.231-0.16-0.402-0.372-0.521-0.652
	c-0.122-0.28-0.181-0.602-0.181-0.965c0-0.271,0.029-0.521,0.11-0.74c0.07-0.212,0.18-0.402,0.312-0.553
	c0.139-0.151,0.3-0.261,0.481-0.342c0.17-0.07,0.371-0.109,0.582-0.109c0.261,0,0.48,0.049,0.672,0.149
	c0.181,0.09,0.361,0.251,0.522,0.462v-0.121c0-0.161,0.039-0.28,0.119-0.37c0.071-0.081,0.171-0.132,0.291-0.132
	c0.182,0,0.291,0.061,0.353,0.171C38.084,32.585,38.114,32.746,38.114,32.955z"/>
<path fill-rule="evenodd" clip-rule="evenodd" fill="#FFFFFF" d="M39.609,33.84h1.635c-0.02-0.302-0.1-0.531-0.251-0.692
	c-0.139-0.15-0.331-0.231-0.571-0.231c-0.221,0-0.411,0.081-0.552,0.241C39.72,33.309,39.639,33.538,39.609,33.84z M41.376,34.36
	h-1.767c0,0.202,0.039,0.383,0.12,0.543c0.08,0.149,0.19,0.271,0.321,0.352c0.13,0.08,0.281,0.119,0.441,0.119
	c0.111,0,0.211-0.01,0.302-0.039c0.09-0.02,0.17-0.061,0.261-0.121c0.08-0.05,0.16-0.11,0.23-0.171l0.271-0.251
	c0.052-0.039,0.121-0.059,0.201-0.059c0.09,0,0.171,0.029,0.23,0.08c0.051,0.049,0.08,0.12,0.08,0.21c0,0.08-0.029,0.181-0.09,0.292
	c-0.07,0.109-0.171,0.21-0.291,0.31c-0.131,0.1-0.291,0.181-0.491,0.251c-0.191,0.07-0.421,0.1-0.672,0.1
	c-0.582,0-1.035-0.17-1.355-0.502c-0.331-0.331-0.492-0.771-0.492-1.344c0-0.271,0.04-0.512,0.12-0.743
	c0.081-0.229,0.201-0.432,0.352-0.592c0.15-0.161,0.341-0.29,0.562-0.37c0.22-0.091,0.471-0.132,0.742-0.132
	c0.352,0,0.663,0.07,0.914,0.222c0.251,0.15,0.44,0.341,0.571,0.582c0.12,0.231,0.181,0.473,0.181,0.724
	c0,0.219-0.061,0.37-0.19,0.44C41.797,34.321,41.617,34.36,41.376,34.36z"/>
<g>
</g>
<g>
</g>
<g>
</g>
<g>
</g>
<g>
</g>
<g>
</g>
<g>
</g>
<g>
</g>
<g>
</g>
<g>
</g>
<g>
</g>
<g>
</g>
<g>
</g>
<g>
</g>
<g>
</g>
</svg>
